<svg xmlns="http://www.w3.org/2000/svg" viewBox="0 0 512 512">
  <polygon points="256,26 455.19,141 455.19,371 256,486 56.81,371 56.81,141" fill="#4376FC"/>
  <g transform="translate(164, 164) scale(7.67)" fill="#ffffff">
    <path d="M19,12v1.5c2.2,0,4,1.8,4,4s-.2,1.6-.7,2.2l-1.1-1.1c.2-.3.3-.7.3-1.1,0-1.4-1.1-2.5-2.5-2.5v1.5l-2.2-2.2,2.2-2.2M19,23v-1.5c-2.2,0-4-1.8-4-4s.2-1.6.7-2.2l1.1,1.1c-.2.3-.3.7-.3,1.1,0,1.4,1.1,2.5,2.5,2.5v-1.5l2.2,2.2-2.2,2.2M12,3c4.4,0,8,1.8,8,4s-3.6,4-8,4-8-1.8-8-4S7.6,3,12,3M4,9c0,2.2,3.6,4,8,4s2.2-.1,3.1-.3c-1,.9-1.6,2-2,3.3h-1.2c-4.4,0-8-1.8-8-4v-3M20,9v2h-1.1c.7-.6,1.1-1.3,1.1-2M4,14c0,2.2,3.6,4,8,4h1c0,1,.4,2,.9,2.9h-1.9c-4.4.1-8-1.7-8-3.9v-3Z"/>
  </g>
</svg>
